<svg width="50" height="27" viewBox="0 0 50 27" fill="none" xmlns="http://www.w3.org/2000/svg">
<path d="M12 26.08L3.08 2.04H0.76C0.333333 2.04 0.12 1.85333 0.12 1.48C0.12 1.29333 0.186667 0.973333 0.32 0.519999L0.4 0.199998H8.24C8.34667 0.359998 8.4 0.573332 8.4 0.84C8.4 1.13333 8.30667 1.4 8.12 1.64L5.44 1.96L13 22.72L20.56 2.04H18.24C17.8133 2.04 17.6 1.85333 17.6 1.48C17.6 1.29333 17.6667 0.973333 17.8 0.519999L17.88 0.199998H25.52C25.6267 0.359998 25.68 0.573332 25.68 0.84C25.68 1.13333 25.5867 1.4 25.4 1.64L22.72 1.96L13.76 26.08C13.4933 26.1333 13.2 26.16 12.88 26.16C12.56 26.16 12.2667 26.1333 12 26.08ZM42.9422 22.72L38.5422 15.08H32.9822V24.16H35.3022C35.7289 24.16 35.9422 24.3467 35.9422 24.72C35.9422 24.9067 35.8755 25.2267 35.7422 25.68L35.6622 26H27.9422C27.8355 25.84 27.7822 25.6267 27.7822 25.36C27.7822 25.0667 27.8755 24.8 28.0622 24.56L30.7422 24.24V2.04H28.4222C27.9955 2.04 27.7822 1.85333 27.7822 1.48C27.7822 1.29333 27.8489 0.973333 27.9822 0.519999L28.0622 0.199998H38.5822C40.0755 0.199998 41.3422 0.439998 42.3822 0.919999C43.4222 1.37333 44.2622 1.98667 44.9022 2.76C45.5422 3.50667 46.0089 4.32 46.3022 5.2C46.5955 6.05333 46.7422 6.86667 46.7422 7.64C46.7422 8.54667 46.5422 9.50667 46.1422 10.52C45.7689 11.5067 45.1422 12.4 44.2622 13.2C43.3822 14 42.2355 14.5467 40.8222 14.84L45.2222 22.16C45.7289 23.0133 46.1822 23.5867 46.5822 23.88C46.9822 24.1467 47.5155 24.28 48.1822 24.28C48.3955 24.28 48.6222 24.28 48.8622 24.28C49.1289 24.2533 49.3555 24.2267 49.5422 24.2C49.7555 24.5733 49.8755 25.0667 49.9022 25.68C48.9955 26 48.1422 26.16 47.3422 26.16C46.4889 26.16 45.7155 25.8933 45.0222 25.36C44.3289 24.8 43.6355 23.92 42.9422 22.72ZM32.9822 13.24H38.5822C40.3689 13.24 41.7822 12.7067 42.8222 11.64C43.8622 10.5467 44.3822 9.21333 44.3822 7.64C44.3822 6.06667 43.8622 4.74667 42.8222 3.68C41.7822 2.58667 40.3689 2.04 38.5822 2.04H32.9822V13.24Z" fill="#009393"/>
</svg>
