<svg width="80" height="16" viewBox="0 0 80 16" fill="none" xmlns="http://www.w3.org/2000/svg">
<path d="M0.838831 6.83029C0.293767 6.9193 -0.0759379 7.43332 0.0130731 7.97839C0.102084 8.52345 0.616104 8.89316 1.16117 8.80415L0.838831 6.83029ZM79.7489 8.47993C80.1149 8.06634 80.0763 7.43435 79.6627 7.06834L72.9229 1.10385C72.5093 0.737842 71.8773 0.77641 71.5113 1.19C71.1453 1.60359 71.1839 2.23557 71.5975 2.60159L77.5884 7.90335L72.2866 13.8943C71.9206 14.3079 71.9592 14.9399 72.3728 15.3059C72.7864 15.6719 73.4184 15.6333 73.7844 15.2197L79.7489 8.47993ZM1.16117 8.80415C1.51657 8.74611 1.86938 8.68851 2.21962 8.63134L1.89745 6.65746C1.54715 6.71464 1.19428 6.77225 0.838831 6.83029L1.16117 8.80415ZM4.2904 8.29354C4.97048 8.18266 5.64041 8.0735 6.30033 7.96604L5.97889 5.99204C5.31884 6.09952 4.64877 6.2087 3.96858 6.3196L4.2904 8.29354ZM8.2502 7.64874C8.89023 7.54466 9.52039 7.44225 10.1408 7.34151L9.82023 5.36737C9.19966 5.46814 8.56936 5.57056 7.92918 5.67467L8.2502 7.64874ZM12.1494 7.01563C12.8497 6.90213 13.5368 6.79086 14.2111 6.6818L13.8917 4.70747C13.2173 4.81656 12.5299 4.92786 11.8294 5.0414L12.1494 7.01563ZM16.1952 6.36123C16.8438 6.25656 17.4797 6.15407 18.1031 6.05372L17.7853 4.07914C17.1616 4.17953 16.5254 4.28206 15.8766 4.38677L16.1952 6.36123ZM20.061 5.73905C20.7696 5.62535 21.4609 5.51463 22.1352 5.40683L21.8195 3.43191C21.1448 3.53977 20.4531 3.65055 19.7442 3.76431L20.061 5.73905ZM24.1077 5.09219C24.7485 4.99021 25.3726 4.8911 25.9806 4.79482L25.6677 2.81944C25.0593 2.91581 24.4346 3.01499 23.7933 3.11705L24.1077 5.09219ZM28.055 4.46734C28.7453 4.35875 29.4122 4.25423 30.0566 4.15366L29.7482 2.17758C29.103 2.27828 28.4352 2.38294 27.7442 2.49164L28.055 4.46734ZM31.9227 3.86376C32.6523 3.75095 33.3495 3.64388 34.0152 3.54237L33.7138 1.56522C33.0465 1.66696 32.348 1.77424 31.6171 1.88724L31.9227 3.86376ZM35.9558 3.24891C36.6647 3.1427 37.3316 3.04397 37.9583 2.95245L37.6694 0.973439C37.0398 1.06536 36.3705 1.16446 35.6595 1.27099L35.9558 3.24891ZM39.9057 2.67312C40.6531 2.56814 41.3269 2.47649 41.9322 2.39741L41.6731 0.414264C41.0602 0.494336 40.3799 0.58688 39.6275 0.692562L39.9057 2.67312ZM43.8879 2.15858C44.7783 2.06012 45.391 2.01179 45.7829 2.0019L45.7325 0.00253618C45.253 0.0146294 44.572 0.0707411 43.668 0.170696L43.8879 2.15858ZM45.0989 0.760605C44.616 0.95734 43.9714 1.19473 43.2191 1.46736L43.9005 3.3477C44.6483 3.07669 45.3288 2.82656 45.8535 2.61281L45.0989 0.760605ZM41.3327 2.15159C40.7068 2.38106 40.06 2.62271 39.4225 2.87186L40.1505 4.73465C40.77 4.49254 41.4025 4.25619 42.0212 4.02933L41.3327 2.15159ZM37.5183 3.65912C36.8265 3.96534 36.1727 4.28296 35.6132 4.60522L36.6115 6.33826C37.0871 6.06432 37.6711 5.77865 38.3278 5.48799L37.5183 3.65912ZM33.6832 6.42359C33.5814 6.68957 33.5352 6.99939 33.6025 7.32721C33.6693 7.65305 33.833 7.92302 34.0326 8.13627C34.405 8.53401 34.9571 8.79424 35.5518 8.98714L36.1689 7.08473C35.936 7.00919 35.769 6.93759 35.6535 6.87569C35.5966 6.8452 35.5566 6.81941 35.5298 6.79983C35.5029 6.7802 35.4926 6.76932 35.4926 6.76933C35.495 6.77196 35.5409 6.82392 35.5617 6.92546C35.5829 7.02897 35.5626 7.1082 35.5511 7.13841L33.6832 6.42359ZM37.7005 9.45775C38.2831 9.54561 38.9432 9.62344 39.6863 9.6908L39.8668 7.69897C39.1545 7.63439 38.5345 7.56092 37.9987 7.48011L37.7005 9.45775ZM41.6848 9.83514C42.3432 9.87233 43.052 9.90357 43.8141 9.92851L43.8795 7.92958C43.1314 7.90509 42.4384 7.87452 41.7975 7.83832L41.6848 9.83514ZM45.727 9.97575C46.3867 9.98721 47.0801 9.9947 47.8085 9.99802L47.8176 7.99804C47.0971 7.99475 46.4122 7.98736 45.7617 7.97605L45.727 9.97575ZM49.7943 9.99711C50.4299 9.99384 51.0891 9.98778 51.7723 9.97882L51.7461 7.979C51.0679 7.98788 50.4141 7.99389 49.784 7.99714L49.7943 9.99711ZM53.8952 9.9432C54.5222 9.93051 55.1673 9.91562 55.8311 9.89848L55.7795 7.89915C55.1193 7.9162 54.4778 7.931 53.8548 7.94361L53.8952 9.9432ZM57.8011 9.84266C58.4753 9.82192 59.1672 9.79904 59.8771 9.77397L59.8065 7.77521C59.0995 7.80019 58.4106 7.82296 57.7396 7.8436L57.8011 9.84266ZM61.9263 9.69742C62.5521 9.67282 63.1909 9.64663 63.843 9.61882L63.7577 7.62064C63.1078 7.64836 62.4712 7.67446 61.8478 7.69897L61.9263 9.69742ZM65.8392 9.53046C66.518 9.49937 67.2104 9.46661 67.9164 9.43216L67.819 7.43454C67.1148 7.46889 66.4245 7.50155 65.7477 7.53256L65.8392 9.53046ZM69.9831 9.3285C70.6088 9.29629 71.2447 9.26282 71.8908 9.22807L71.7834 7.23095C71.1388 7.26562 70.5044 7.29901 69.8803 7.33115L69.9831 9.3285ZM73.8605 9.11997C74.5274 9.08264 75.2048 9.04402 75.8928 9.00407L75.7769 7.00743C75.0902 7.0473 74.4142 7.08584 73.7487 7.12309L73.8605 9.11997ZM77.9888 8.88026C78.3435 8.85896 78.7009 8.83733 79.0609 8.81535L78.9391 6.81907C78.5797 6.841 78.2229 6.8626 77.8689 6.88386L77.9888 8.88026Z" fill="#0891B2"/>
</svg>
